G04 MADE WITH FRITZING*
G04 WWW.FRITZING.ORG*
G04 DOUBLE SIDED*
G04 HOLES PLATED*
G04 CONTOUR ON CENTER OF CONTOUR VECTOR*
%ASAXBY*%
%FSLAX23Y23*%
%MOIN*%
%OFA0B0*%
%SFA1.0B1.0*%
%ADD10C,0.062992*%
%ADD11C,0.075000*%
%ADD12C,0.066194*%
%ADD13C,0.066222*%
%ADD14R,0.062992X0.062992*%
%ADD15C,0.024000*%
%LNCOPPER1*%
G90*
G70*
G54D10*
X2521Y1259D03*
X2521Y1357D03*
X2221Y1259D03*
X2221Y1357D03*
X1921Y1259D03*
X1921Y1357D03*
X1621Y1259D03*
X1621Y1357D03*
X1321Y1259D03*
X1321Y1357D03*
G54D11*
X2521Y959D03*
X2521Y559D03*
X2221Y959D03*
X2221Y559D03*
X1921Y959D03*
X1921Y559D03*
X1621Y959D03*
X1621Y559D03*
X1321Y959D03*
X1321Y559D03*
G54D12*
X2581Y159D03*
X2681Y159D03*
X2781Y159D03*
X2881Y159D03*
X2981Y159D03*
G54D13*
X2121Y2059D03*
X2021Y2059D03*
X1921Y2059D03*
X1821Y2059D03*
X1721Y2059D03*
X1621Y2059D03*
X1521Y2059D03*
X1421Y2059D03*
X1321Y2059D03*
X1221Y2059D03*
X2981Y2059D03*
X2881Y2059D03*
X2781Y2059D03*
X2681Y2059D03*
X2581Y2059D03*
X2481Y2059D03*
X2381Y2059D03*
X2281Y2059D03*
G54D12*
X1681Y159D03*
X1581Y159D03*
X1781Y159D03*
X1881Y159D03*
X1981Y159D03*
X2081Y159D03*
X2181Y159D03*
X2281Y159D03*
X2481Y159D03*
G54D14*
X2521Y1259D03*
X2221Y1259D03*
X1921Y1259D03*
X1621Y1259D03*
X1321Y1259D03*
G54D15*
X1218Y1258D02*
X1301Y1339D01*
D02*
X1623Y1556D02*
X1621Y2028D01*
D02*
X1311Y986D02*
X1218Y1258D01*
D02*
X1340Y1278D02*
X1623Y1556D01*
D02*
X2196Y1346D02*
X2148Y1322D01*
D02*
X2148Y1322D02*
X2215Y987D01*
D02*
X1548Y1322D02*
X1615Y987D01*
D02*
X1596Y1346D02*
X1548Y1322D01*
D02*
X1721Y2028D02*
X1719Y1359D01*
D02*
X1836Y1322D02*
X1821Y2028D01*
D02*
X1899Y1275D02*
X1836Y1322D01*
D02*
X1719Y1359D02*
X1639Y1278D01*
D02*
X1935Y2032D02*
X2292Y1394D01*
D02*
X2184Y189D02*
X2218Y530D01*
D02*
X2292Y1298D02*
X2244Y1272D01*
D02*
X2292Y1394D02*
X2292Y1298D01*
G04 End of Copper1*
M02*