; NON-PLATED HOLES START AT T1
; THROUGH (PLATED) HOLES START AT T100
M48
INCH
T100C0.038445
T101C0.038417
T102C0.031497
T103C0.035000
%
T100
X016205Y020587
X021205Y020587
X025805Y020587
X015205Y020587
X028806Y020587
X029806Y020587
X023806Y020587
X027806Y020587
X018205Y020587
X026805Y020587
X017205Y020587
X022805Y020587
X024806Y020587
X020206Y020587
X012205Y020587
X013205Y020587
X014205Y020587
X019205Y020587
T101
X018806Y001588
X016805Y001588
X026805Y001588
X024806Y001588
X029806Y001588
X019806Y001588
X028806Y001588
X025805Y001588
X022805Y001588
X015805Y001588
X017805Y001588
X027806Y001588
X021805Y001588
X020805Y001588
T102
X016205Y013572
X019205Y013572
X013205Y012587
X019205Y012587
X022205Y013572
X025205Y013572
X013205Y013572
X022205Y012587
X025205Y012587
X016205Y012587
T103
X016205Y005588
X013205Y005588
X016205Y009588
X022205Y009588
X022205Y005588
X019205Y005588
X019205Y009588
X025205Y005588
X025205Y009588
X013205Y009588
T00
M30
