G04 MADE WITH FRITZING*
G04 WWW.FRITZING.ORG*
G04 DOUBLE SIDED*
G04 HOLES PLATED*
G04 CONTOUR ON CENTER OF CONTOUR VECTOR*
%ASAXBY*%
%FSLAX23Y23*%
%MOIN*%
%OFA0B0*%
%SFA1.0B1.0*%
%ADD10C,0.072992*%
%ADD11C,0.085000*%
%ADD12C,0.076194*%
%ADD13C,0.076222*%
%ADD14R,0.072992X0.072992*%
%LNMASK0*%
G90*
G70*
G54D10*
X2521Y1259D03*
X2521Y1357D03*
X2221Y1259D03*
X2221Y1357D03*
X1921Y1259D03*
X1921Y1357D03*
X1621Y1259D03*
X1621Y1357D03*
X1321Y1259D03*
X1321Y1357D03*
G54D11*
X2521Y959D03*
X2521Y559D03*
X2221Y959D03*
X2221Y559D03*
X1921Y959D03*
X1921Y559D03*
X1621Y959D03*
X1621Y559D03*
X1321Y959D03*
X1321Y559D03*
G54D12*
X2581Y159D03*
X2681Y159D03*
X2781Y159D03*
X2881Y159D03*
X2981Y159D03*
G54D13*
X2121Y2059D03*
X2021Y2059D03*
X1921Y2059D03*
X1821Y2059D03*
X1721Y2059D03*
X1621Y2059D03*
X1521Y2059D03*
X1421Y2059D03*
X1321Y2059D03*
X1221Y2059D03*
X2981Y2059D03*
X2881Y2059D03*
X2781Y2059D03*
X2681Y2059D03*
X2581Y2059D03*
X2481Y2059D03*
X2381Y2059D03*
X2281Y2059D03*
G54D12*
X1681Y159D03*
X1581Y159D03*
X1781Y159D03*
X1881Y159D03*
X1981Y159D03*
X2081Y159D03*
X2181Y159D03*
X2281Y159D03*
X2481Y159D03*
G54D14*
X2521Y1259D03*
X2221Y1259D03*
X1921Y1259D03*
X1621Y1259D03*
X1321Y1259D03*
G04 End of Mask0*
M02*